<svg width="246" height="96" viewBox="0 0 246 96" fill="none" xmlns="http://www.w3.org/2000/svg">
<path fill-rule="evenodd" clip-rule="evenodd" d="M1 9.38301H20.3905L21.0656 16.557C23.0012 14.1894 25.4663 12.232 28.2943 10.8169C31.1224 9.40171 34.2474 8.56195 37.4584 8.35431C38.3125 8.28622 39.1693 8.25247 40.0266 8.25319C42.1957 8.23128 44.3583 8.47626 46.457 8.98155C48.8157 9.53622 51.0003 10.5922 52.8355 12.0648C54.6707 13.5373 56.1053 15.3855 57.024 17.4608C58.7419 15.0004 61.0291 12.9202 63.7225 11.3692C66.4159 9.81818 69.4489 8.83477 72.6038 8.48945C73.9076 8.32928 75.2221 8.25039 76.5378 8.25319C79.5635 8.19804 82.5728 8.67491 85.4044 9.65832C92.2981 12.1942 96.1938 18.1624 97.092 27.5629C97.1913 28.6183 97.2533 29.6764 97.2781 30.7355V70.5034H76.5378V31.9218C76.5412 31.1184 76.4972 30.3155 76.4052 29.5166C76.2077 27.865 75.7886 26.5412 75.1482 25.5451C75.0467 25.3873 74.9372 25.2343 74.8193 25.0867C74.2523 24.3973 73.4878 23.8669 72.6122 23.555C71.5307 23.1451 70.1806 22.9402 68.5603 22.9402C67.1216 22.9208 65.6937 23.1662 64.3594 23.6621C62.3098 24.4508 60.6624 25.8859 59.4172 27.9676L59.4787 28.7584V70.5034H38.738V32.0349C38.7411 31.2458 38.7021 30.457 38.6211 29.6714C38.4498 28.0772 38.0905 26.7846 37.5429 25.7935C37.4081 25.5478 37.2538 25.3116 37.0814 25.0867C36.5542 24.4237 35.8367 23.9091 35.0096 23.6006C33.9017 23.1604 32.4854 22.9402 30.7609 22.9402C29.151 22.9156 27.5577 23.2424 26.1116 23.894C24.7231 24.5377 23.5176 25.5072 22.495 26.8028C22.2005 27.1773 21.9281 27.566 21.6792 27.9676V70.5034H1V9.38301Z" fill="#EEE3C1" stroke="#EEE3C1" stroke-width="0.0628354" stroke-linecap="round"/>
<path fill-rule="evenodd" clip-rule="evenodd" d="M119.495 9.22131L129.988 43.6791L141.033 9.22131H163.186L136.124 80.5658L134.959 83.1642C131.113 91.0725 124.322 95.0269 114.586 95.0269C112.832 95.0212 111.082 94.8737 109.356 94.5855C108.245 94.4026 107.145 94.1726 106.057 93.8973V80.2833H108.757C111.661 80.2833 113.881 79.8974 115.415 79.1256C116.304 78.6686 117.062 78.023 117.624 77.2419C118.01 76.7226 118.346 76.1263 118.631 75.4522C118.698 75.2938 118.761 75.1343 118.82 74.9733L120.477 70.9062L97.4048 9.22131H119.495Z" fill="#EEE3C1" stroke="#EEE3C1" stroke-width="0.0628354" stroke-linecap="round"/>
<path fill-rule="evenodd" clip-rule="evenodd" d="M216.079 94.173H195.4C194.735 93.0507 194.136 91.4516 193.605 89.3762C193.547 89.1493 193.49 88.9218 193.436 88.6938C191.848 90.5526 189.858 92.0883 187.593 93.2034C185.328 94.3185 182.836 94.9884 180.274 95.1723C179.347 95.2606 178.415 95.3042 177.482 95.3026C174.572 95.3286 171.678 94.9007 168.924 94.037C166.208 93.1618 163.698 91.8183 161.528 90.0779C159.411 88.4382 157.713 86.3904 156.552 84.0793C155.473 81.833 154.93 79.3998 154.962 76.9443C154.962 70.3162 157.621 65.308 162.939 61.9186C165.194 60.5164 167.668 59.4387 170.276 58.7225C172.608 58.0536 175.193 57.5628 178.031 57.2491C180.72 56.9629 183.426 56.8242 186.134 56.8346H192.516V53.6146C192.529 52.5469 192.411 51.4814 192.164 50.4382C191.285 46.9446 188.764 45.1978 184.6 45.1978C180.724 45.1978 178.379 46.5825 177.563 49.3519C177.334 50.1722 177.225 51.0167 177.237 51.8635H156.557C156.508 49.4344 157.033 47.0245 158.096 44.8011C159.16 42.5778 160.737 40.5942 162.718 38.9884C163.365 38.4455 164.043 37.935 164.749 37.459C168.12 35.2179 171.959 33.6468 176.024 32.8456C178.795 32.2691 181.787 31.9629 184.998 31.9268C185.213 31.9244 185.428 31.9231 185.643 31.9231C192.288 31.9231 197.837 33.0941 202.29 35.4361C203.499 36.0704 204.643 36.8043 205.709 37.6286C209.835 40.8107 212.458 45.3441 213.024 50.2723C213.162 51.2687 213.24 52.2715 213.256 53.2759V80.3336C213.336 85.7781 214.224 89.9818 215.921 92.9442C215.973 93.0341 216.025 93.1239 216.079 93.2127V94.173ZM192.516 76.775V67.0027H186.502C179.302 67.0027 175.702 69.9776 175.702 75.9274C175.695 76.6062 175.807 77.2813 176.035 77.9269C176.344 78.775 176.884 79.5359 177.605 80.1357C178.617 80.9875 179.894 81.5256 181.256 81.6741C181.652 81.7229 182.052 81.7468 182.452 81.7458C183.398 81.751 184.342 81.6731 185.271 81.5131C186.409 81.3105 187.433 80.9766 188.343 80.5102C188.52 80.4193 188.694 80.3227 188.865 80.2204C190.563 79.204 191.78 78.0552 192.516 76.775Z" fill="#EEE3C1" stroke="#EEE3C1" stroke-width="0.0628354" stroke-linecap="round"/>
<path fill-rule="evenodd" clip-rule="evenodd" d="M245.946 33.0168V94.0998H224.582V33.0168H245.946Z" fill="#EEE3C1" stroke="#EEE3C1" stroke-width="0.0628354" stroke-linecap="round"/>
<path d="M234.636 28.6797C240.188 28.6797 244.689 24.5361 244.689 19.4247C244.689 14.3133 240.188 10.1697 234.636 10.1697C229.083 10.1697 224.582 14.3133 224.582 19.4247C224.582 24.5361 229.083 28.6797 234.636 28.6797Z" fill="#D0021B"/>
<path fill-rule="evenodd" clip-rule="evenodd" d="M216.317 28.7645L211.826 20.3878L209.21 22.5454L208.058 28.7645H203.43L208.624 0.914551H213.252L210.284 16.7253L211.905 15.1659L218.621 9.14626H224.538L215.165 17.523L221.335 28.7645H216.317ZM201.673 15.0571L197.085 15.0389C197.086 14.9991 197.086 14.9592 197.086 14.9193C197.086 14.0697 196.819 13.3994 196.284 12.9085C195.914 12.5734 195.454 12.3366 194.952 12.2226C194.634 12.148 194.308 12.1075 193.98 12.1017C193.528 12.0987 193.078 12.15 192.641 12.2545C192.174 12.3673 191.732 12.5549 191.334 12.8088C191.036 12.996 190.773 13.2286 190.557 13.4968C190.289 13.8391 190.116 14.2383 190.055 14.6582C190.04 14.747 190.032 14.8367 190.031 14.9265C190.02 15.8505 190.804 16.5118 192.383 16.9103C192.44 16.9247 192.497 16.9385 192.555 16.9519C194.403 17.381 195.77 17.7769 196.655 18.1395C199.144 19.1552 200.389 20.7235 200.389 22.8443C200.389 22.92 200.388 22.9956 200.384 23.0713C200.342 24.261 199.879 25.4047 199.066 26.3258C198.462 27.0052 197.721 27.568 196.884 27.9825C196.532 28.1592 196.169 28.3144 195.796 28.4472C194.507 28.9058 193.138 29.1376 191.758 29.1309C191.653 29.1309 191.547 29.1297 191.442 29.1271C190.527 29.1244 189.617 29.0067 188.736 28.7771C187.62 28.4833 186.587 27.9652 185.711 27.2596C185.049 26.7461 184.51 26.1103 184.127 25.3927C183.744 24.675 183.527 23.8912 183.488 23.0912C183.477 22.9184 183.473 22.7425 183.475 22.5636L187.947 22.5817C187.967 23.407 188.18 24.076 188.585 24.5886C188.696 24.7291 188.822 24.8586 188.962 24.9751C189.569 25.4828 190.387 25.7588 191.414 25.8032C191.488 25.8063 191.563 25.8083 191.637 25.8091C192.652 25.8091 193.516 25.636 194.229 25.2899C194.32 25.2455 194.41 25.198 194.497 25.1473C194.801 24.9758 195.07 24.7569 195.293 24.5001C195.581 24.1593 195.768 23.7541 195.835 23.3251C195.853 23.2268 195.865 23.1275 195.868 23.0279C195.906 21.99 195.059 21.2582 193.327 20.8323C193.327 20.8322 193.326 20.8321 193.326 20.832C191.497 20.3827 190.23 20.0208 189.524 19.7462C189.499 19.7366 189.475 19.7268 189.45 19.7169C186.857 18.6881 185.56 17.1393 185.56 15.0704C185.56 14.9995 185.562 14.9285 185.565 14.8576C185.586 14.0945 185.782 13.3443 186.139 12.6566C186.496 11.9689 187.006 11.3595 187.636 10.8687C187.802 10.7323 187.974 10.6022 188.152 10.4789C189.518 9.53522 191.142 8.96512 192.839 8.83295C193.253 8.79551 193.679 8.77908 194.117 8.78366C194.938 8.7867 195.755 8.8826 196.551 9.06921C197.676 9.33083 198.719 9.8356 199.594 10.5424C200.223 11.044 200.732 11.6621 201.088 12.3572C201.445 13.0523 201.641 13.809 201.664 14.5786C201.672 14.7354 201.675 14.8949 201.673 15.0571ZM179.16 28.7645H174.572C174.417 28.2853 174.351 27.6815 174.376 26.953C174.376 26.9464 174.376 26.9398 174.376 26.9332C173.769 27.468 173.091 27.9285 172.358 28.3034C171.203 28.8828 169.995 29.1574 168.733 29.1271C167.957 29.1238 167.187 29.006 166.451 28.7781C165.599 28.5077 164.822 28.0667 164.174 27.4862C162.97 26.4165 162.407 25.0597 162.485 23.4158C162.587 21.3874 163.517 19.7838 165.274 18.6052C165.307 18.5827 165.341 18.5604 165.375 18.5384C167.197 17.3538 169.645 16.7615 172.717 16.7615L175.724 16.7978L175.997 15.456C176.027 15.2742 176.046 15.0909 176.053 14.9069C176.063 14.6413 176.044 14.3864 175.999 14.1421C175.998 14.1389 175.998 14.1356 175.997 14.1324C175.934 13.783 175.798 13.4486 175.595 13.1484C175.134 12.4883 174.337 12.1454 173.205 12.1198C172.591 12.1048 172.024 12.1887 171.503 12.3714C171.182 12.4841 170.878 12.6341 170.598 12.8179C169.85 13.3075 169.391 13.9632 169.222 14.7851L164.594 14.8214C164.669 13.6486 165.156 12.531 165.98 11.6393C166.574 10.9955 167.288 10.4554 168.086 10.0441C168.477 9.84019 168.882 9.66134 169.3 9.50887C170.625 9.02273 172.039 8.77602 173.464 8.78199C173.534 8.78199 173.604 8.78255 173.673 8.78366C174.429 8.79401 175.182 8.88518 175.915 9.05538C177.111 9.32294 178.202 9.89797 179.062 10.7146C180.328 11.9309 180.865 13.4996 180.675 15.4206C180.671 15.4566 180.668 15.4926 180.664 15.5286L179.043 24.7212L178.887 26.353C178.881 26.4545 178.878 26.556 178.878 26.6576C178.878 27.2621 178.98 27.8629 179.18 28.4381L179.16 28.7645ZM174.65 23.2707L175.372 19.5537L173.166 19.5356C172.606 19.533 172.047 19.5691 171.494 19.6435C170.915 19.7241 170.389 19.8499 169.915 20.0209C169.591 20.1363 169.281 20.2804 168.987 20.4512C167.946 21.0617 167.354 21.8988 167.21 22.9625C167.197 23.0617 167.189 23.1614 167.185 23.2613C167.174 23.5558 167.206 23.8248 167.283 24.0684C167.376 24.3721 167.549 24.6495 167.786 24.8753C168.116 25.1854 168.531 25.404 168.987 25.5066C169.256 25.5692 169.531 25.6038 169.807 25.6097C169.858 25.6109 169.908 25.6116 169.959 25.6115C170.858 25.6163 171.742 25.3998 172.521 24.9841C173.346 24.5496 174.07 23.9672 174.65 23.2707Z" fill="#A6A7A8" fill-opacity="0.3"/>
<g clip-path="url(#clip0_405_33)">
<path fill-rule="evenodd" clip-rule="evenodd" d="M102.553 82.3167H98.8642C98.8694 81.9461 98.7862 81.5796 98.6214 81.2476C98.4847 80.9822 98.2993 80.7449 98.0749 80.5481C97.727 80.2413 97.3058 80.0295 96.8519 79.9335C96.5656 79.8709 96.2733 79.8403 95.9802 79.8424C95.6957 79.8406 95.4117 79.8671 95.1325 79.9214C94.7849 79.9912 94.4744 80.1076 94.2011 80.2705C94.1317 80.3118 94.0644 80.3565 93.9993 80.4042C93.5063 80.7654 93.251 81.2444 93.2336 81.8411C93.233 81.863 93.2327 81.885 93.2327 81.907C93.2327 82.4326 93.4374 82.8493 93.8467 83.1573C93.8791 83.1818 93.9123 83.2052 93.9462 83.2276C94.0886 83.3185 94.2383 83.3973 94.3938 83.4632C94.9329 83.6995 95.745 83.9371 96.8302 84.1761C97.2551 84.2689 97.6772 84.3745 98.0957 84.4928C98.5196 84.6135 98.9078 84.7411 99.2606 84.8758C99.5952 85.0016 99.9216 85.1481 100.238 85.3145C100.986 85.7139 101.56 86.1862 101.958 86.7315C101.999 86.7868 102.037 86.8433 102.075 86.9009C102.337 87.3112 102.514 87.7695 102.597 88.2492C102.65 88.5457 102.676 88.8464 102.674 89.1476C102.687 89.756 102.569 90.3599 102.326 90.918C102.083 91.476 101.723 91.9748 101.269 92.3801C101.131 92.5064 100.987 92.6256 100.838 92.7373C100.135 93.2537 99.3362 93.6249 98.4884 93.8291C97.8847 93.9818 97.2295 94.0725 96.523 94.1011C96.3573 94.1078 96.1915 94.1111 96.0256 94.1111C95.3658 94.1145 94.7074 94.0496 94.0609 93.9174C93.4982 93.8014 92.9504 93.622 92.4281 93.3827C91.8953 93.141 91.3975 92.8287 90.9481 92.4541C90.5753 92.1409 90.2461 91.7792 89.9691 91.3788C89.5833 90.8313 89.3144 90.2102 89.1792 89.5542C89.1186 89.2503 89.0883 88.9411 89.0887 88.6312H92.6709C92.6857 88.9364 92.7445 89.2379 92.8453 89.5263C93.0022 89.9692 93.2844 90.3571 93.6577 90.6426C94.0049 90.9069 94.4026 91.0973 94.8262 91.2022C95.1303 91.2814 95.4613 91.3284 95.8192 91.3433C95.9032 91.3468 95.9872 91.3486 96.0713 91.3486C96.3466 91.3499 96.6216 91.3326 96.8945 91.297C97.165 91.2603 97.4107 91.2041 97.6316 91.1282C97.8658 91.0504 98.0869 90.9379 98.2875 90.7943C98.4773 90.6594 98.6413 90.4916 98.7719 90.2988C98.9569 90.0154 99.0525 89.683 99.0464 89.3447C99.0495 89.1105 99.0091 88.8778 98.9273 88.6583C98.8094 88.3524 98.6039 88.0973 98.3109 87.8929C98.2857 87.8754 98.2602 87.8584 98.2344 87.8419C97.788 87.5582 97.0991 87.302 96.1677 87.0734C95.9593 87.0225 95.75 86.9752 95.54 86.9314C94.5548 86.7247 93.6973 86.4745 92.9678 86.1806C92.7752 86.1032 92.5851 86.0194 92.398 85.9294C91.9193 85.704 91.4707 85.4198 91.0625 85.0832C90.6091 84.7218 90.2447 84.2612 89.9972 83.7369C89.7498 83.2125 89.626 82.6384 89.6352 82.0587C89.6352 80.6419 90.2323 79.4579 91.4265 78.5066C92.6205 77.5553 94.1384 77.0797 95.9802 77.0797C96.6621 77.075 97.3425 77.1423 98.0102 77.2805C98.8994 77.4708 99.6833 77.7967 100.362 78.2582C100.491 78.3461 100.617 78.4391 100.739 78.5371C101.295 78.9718 101.75 79.5229 102.071 80.1518C102.387 80.7866 102.548 81.4958 102.553 82.2794C102.553 82.2918 102.553 82.3043 102.553 82.3167V82.3167ZM11.825 88.3732H15.3009C15.2605 89.3954 14.9417 90.3491 14.3446 91.2345C13.7937 92.0462 13.0578 92.7154 12.1977 93.1871C12.1049 93.2391 12.011 93.2891 11.9161 93.337C10.8939 93.853 9.79082 94.1111 8.60679 94.1111C7.80153 94.1186 6.9992 94.013 6.2233 93.7974C5.03492 93.464 3.96615 92.7989 3.1422 91.8799C2.36539 91.0066 1.80604 89.9621 1.50979 88.8314C1.30046 88.076 1.17622 87.249 1.13705 86.3503C1.12788 86.1393 1.12332 85.928 1.12337 85.7168V85.3375C1.11692 84.4794 1.20755 83.6233 1.39352 82.7855C1.69424 81.4775 2.24594 80.3569 3.04863 79.4237C3.07449 79.3935 3.10061 79.3636 3.12697 79.3338C4.19118 78.1363 5.65559 77.3678 7.24577 77.1726C7.69156 77.1094 8.14131 77.0784 8.59156 77.0797C9.32122 77.0735 10.0485 77.1646 10.754 77.3508C11.7289 77.609 12.6256 78.1022 13.3657 78.7873C14.4306 79.7717 15.0992 81.1112 15.2459 82.5539C15.2749 82.7927 15.2933 83.0326 15.3009 83.273H11.825C11.8114 82.8713 11.7344 82.4742 11.5968 82.0966C11.4366 81.6662 11.1856 81.2753 10.861 80.9504C10.3198 80.4025 9.59107 80.08 8.82161 80.0479C8.73498 80.0425 8.6482 80.0398 8.5614 80.0398C8.15311 80.0354 7.7466 80.0944 7.35644 80.2149C6.73087 80.4136 6.18509 80.8069 5.79864 81.3374C5.54068 81.6912 5.34018 82.0835 5.20456 82.4998C4.94922 83.2505 4.81834 84.1761 4.81192 85.2766V85.8688C4.81006 86.335 4.8356 86.8008 4.88839 87.264C5.01813 88.361 5.31398 89.2241 5.77595 89.8533C6.41843 90.7287 7.34691 91.1664 8.5614 91.1664C8.93335 91.1697 9.30384 91.1196 9.66159 91.0178C10.1027 90.8904 10.5098 90.6663 10.8535 90.3619C11.1659 90.0926 11.4166 89.7591 11.5884 89.3842C11.7296 89.0649 11.8099 88.722 11.825 88.3732ZM31.6645 93.8076H27.9001C27.7666 93.549 27.6468 93.1561 27.5407 92.6291C27.5172 92.5112 27.4953 92.3929 27.4751 92.2744C26.9446 92.8471 26.3026 93.3054 25.5885 93.6209C24.8745 93.9365 24.1034 94.1028 23.3228 94.1095C23.2698 94.1106 23.2169 94.1111 23.1639 94.1111C22.5477 94.1162 21.9335 94.0408 21.3369 93.8869C20.5151 93.6748 19.7568 93.2674 19.1262 92.6994C18.6001 92.2367 18.1842 91.6622 17.9092 91.0178C17.6743 90.4437 17.5566 89.8285 17.5628 89.2082C17.556 88.61 17.6448 88.0145 17.8258 87.4443C18.1278 86.5259 18.72 85.7306 19.5133 85.178C20.8138 84.2419 22.6733 83.7738 25.092 83.7738H27.3536V82.6963C27.3536 81.8461 27.1158 81.1655 26.6401 80.6545C26.3789 80.3792 26.0517 80.1752 25.6895 80.0619C25.4486 79.9821 25.1812 79.9298 24.8871 79.9049C24.7482 79.8933 24.6089 79.8876 24.4696 79.8878C24.1635 79.8857 23.8581 79.9176 23.559 79.983C23.1392 80.0727 22.7448 80.2556 22.405 80.518C22.1956 80.678 22.0166 80.8745 21.8769 81.0981C21.6909 81.4059 21.5951 81.7597 21.6005 82.1193H17.9119C17.9139 81.328 18.1504 80.555 18.5915 79.8981C18.6598 79.7934 18.7318 79.6913 18.8076 79.5919C19.261 79.0027 19.8262 78.5087 20.4708 78.1382C20.7204 77.9925 20.9785 77.8621 21.2439 77.7478C22.0074 77.4212 22.8165 77.2137 23.643 77.1325C23.9881 77.0969 24.3349 77.0792 24.6819 77.0797C25.3241 77.0753 25.965 77.1373 26.5944 77.265C27.3867 77.4314 28.0886 77.71 28.7 78.1009C28.9031 78.2307 29.0973 78.3738 29.2813 78.5293C30.1589 79.2725 30.7432 80.3039 30.9293 81.4388C30.9992 81.8238 31.037 82.2139 31.0421 82.6052V90.0128C31.0406 90.4663 31.063 90.9195 31.1093 91.3707C31.1572 91.8215 31.2306 92.2352 31.3297 92.612C31.4125 92.9341 31.5245 93.2479 31.6645 93.5496V93.8076ZM44.9162 86.0205V85.5651C44.9116 84.7359 45.0014 83.9089 45.1839 83.1001C45.3364 82.433 45.5649 81.7855 45.865 81.1705C46.2641 80.339 46.8136 79.5885 47.486 78.9571C47.8078 78.6585 48.157 78.3908 48.5289 78.1575C49.6741 77.4384 51.0021 77.0643 52.3543 77.0797C53.0708 77.0734 53.7853 77.1584 54.4804 77.3327C55.6722 77.6259 56.7418 78.2861 57.5381 79.2201C58.5634 80.4198 59.1576 82.0381 59.3207 84.0747C59.3523 84.4746 59.3678 84.8755 59.3673 85.2766V86.7644H48.6353C48.6715 87.2512 48.7648 87.732 48.9132 88.1969C49.1251 88.8701 49.4957 89.4824 49.9938 89.9823C50.7279 90.7161 51.7169 91.1384 52.7547 91.1612C52.8337 91.1647 52.9128 91.1664 52.9919 91.1664C53.6967 91.1818 54.3966 91.046 55.0445 90.768C55.6923 90.4901 56.2731 90.0765 56.7476 89.5552C56.8785 89.4149 57.003 89.2687 57.1206 89.1171L59.109 91.0144C58.4514 91.9962 57.5736 92.7577 56.4756 93.299C55.3776 93.8404 54.1454 94.1111 52.7792 94.1111C51.8895 94.1195 51.0034 93.9968 50.1495 93.7467C48.9912 93.4013 47.9399 92.7666 47.0946 91.9026C46.0296 90.8136 45.3259 89.423 45.0791 87.92C44.9679 87.293 44.9134 86.6573 44.9162 86.0205V86.0205ZM61.5985 86.0205V85.5651C61.594 84.7359 61.6839 83.9089 61.8665 83.1001C62.0188 82.433 62.2473 81.7855 62.5473 81.1705C62.9463 80.339 63.4959 79.5885 64.1682 78.9571C64.4901 78.6585 64.8393 78.3908 65.2112 78.1575C66.3564 77.4384 67.6844 77.0643 69.0365 77.0797C69.7531 77.0734 70.4676 77.1584 71.1626 77.3327C72.3545 77.6259 73.4241 78.2861 74.2204 79.2201C75.2457 80.4198 75.84 82.0381 76.0033 84.0747C76.0347 84.4746 76.0502 84.8755 76.0496 85.2766V86.7644H65.3175C65.3538 87.2512 65.4471 87.732 65.5955 88.1969C65.8074 88.8701 66.178 89.4824 66.6761 89.9823C67.4102 90.7161 68.3992 91.1384 69.437 91.1612C69.516 91.1647 69.5951 91.1664 69.6742 91.1664C70.379 91.1818 71.0789 91.046 71.7267 90.768C72.3746 90.4901 72.9553 90.0765 73.4299 89.5552C73.5608 89.4149 73.6853 89.2687 73.8029 89.1171L75.7916 91.0144C75.1338 91.9962 74.2559 92.7577 73.1578 93.299C72.0598 93.8404 70.8277 94.1111 69.4615 94.1111C68.5718 94.1195 67.6857 93.9968 66.8318 93.7467C65.6735 93.4013 64.6221 92.7666 63.7768 91.9026C62.7118 90.8136 62.0081 89.423 61.7614 87.92C61.6502 87.293 61.5957 86.6573 61.5985 86.0205V86.0205ZM43.5198 77.2923L43.5046 80.7533C43.0188 80.6723 42.5178 80.6318 42.0018 80.6318C41.566 80.6271 41.1315 80.6786 40.7088 80.785C40.2398 80.8967 39.8035 81.1168 39.4349 81.4276C39.0663 81.7384 38.7757 82.1313 38.5865 82.5747V93.8076H34.8979V77.3834H38.4195L38.5106 79.2201C39.3999 77.795 40.6326 77.0815 42.2085 77.0797C42.2105 77.0797 42.2125 77.0797 42.2144 77.0797C42.6144 77.0797 42.9618 77.1206 43.2565 77.2025C43.346 77.2271 43.4339 77.2571 43.5198 77.2923V77.2923ZM87.5253 77.2923L87.5101 80.7533C87.0243 80.6723 86.5234 80.6318 86.0073 80.6318C85.5715 80.6271 85.137 80.6786 84.7144 80.785C84.2453 80.8967 83.809 81.1168 83.4404 81.4276C83.0718 81.7384 82.7813 82.1313 82.592 82.5747V93.8076H78.9031V77.3834H82.4248L82.5158 79.2201C83.4054 77.795 84.638 77.0815 86.2137 77.0797C86.2157 77.0797 86.2177 77.0797 86.2196 77.0797C86.6198 77.0797 86.9673 77.1206 87.262 77.2025C87.3515 77.2271 87.4394 77.2571 87.5253 77.2923V77.2923ZM48.6959 84.0623H55.7242V83.789C55.6695 82.954 55.5013 82.2567 55.2196 81.6971C55.0921 81.4399 54.9299 81.2014 54.7375 80.9883C54.3127 80.5257 53.7464 80.217 53.1274 80.1107C52.8675 80.0622 52.6035 80.0385 52.339 80.0398C51.9389 80.0355 51.541 80.0994 51.1624 80.2289C50.6686 80.4041 50.2292 80.7052 49.8875 81.1024C49.2651 81.8108 48.8679 82.7974 48.6959 84.0623ZM65.3781 84.0623H72.4064V83.789C72.3517 82.954 72.1836 82.2567 71.9019 81.6971C71.7744 81.4399 71.6121 81.2014 71.4197 80.9883C70.995 80.5257 70.4289 80.2171 69.81 80.1107C69.5499 80.0622 69.2859 80.0385 69.0213 80.0398C68.6212 80.0355 68.2233 80.0994 67.8446 80.2289C67.3509 80.4041 66.9114 80.7052 66.5697 81.1024C65.9476 81.8108 65.5504 82.7974 65.3781 84.0623ZM27.3536 89.193V86.0963H25.3652C25.0069 86.095 24.6488 86.1139 24.2927 86.1529C23.4944 86.2437 22.8524 86.4442 22.3668 86.7545C22.3387 86.7724 22.3109 86.7909 22.2835 86.8098C22.0073 86.9909 21.7741 87.2302 21.6001 87.511C21.4262 87.7917 21.3157 88.1071 21.2766 88.4351C21.2595 88.5656 21.2511 88.697 21.2514 88.8286C21.2489 89.0873 21.2852 89.3449 21.3593 89.5928C21.4687 89.9517 21.6758 90.2731 21.9574 90.5211C22.2601 90.7873 22.625 90.9729 23.0184 91.0607C23.2559 91.1173 23.5135 91.1474 23.7912 91.1509C23.8099 91.1511 23.8286 91.1512 23.8472 91.1512C24.567 91.1535 25.2753 90.9705 25.904 90.6199C26.5467 90.2657 27.0299 89.7901 27.3536 89.193Z" fill="#369349" stroke="#369349" stroke-width="0.293742" stroke-linecap="round"/>
</g>
<defs>
<clipPath id="clip0_405_33">
<rect width="101.552" height="17.0329" fill="white" transform="translate(1.12305 77.0787)"/>
</clipPath>
</defs>
</svg>
