<svg width="246" height="96" viewBox="0 0 246 96" fill="none" xmlns="http://www.w3.org/2000/svg">
<path fill-rule="evenodd" clip-rule="evenodd" d="M1 9.38301H20.3905L21.0656 16.557C23.0012 14.1894 25.4663 12.232 28.2943 10.8169C31.1224 9.40171 34.2474 8.56195 37.4584 8.35431C38.3125 8.28622 39.1693 8.25247 40.0266 8.25319C42.1957 8.23128 44.3583 8.47626 46.457 8.98155C48.8157 9.53622 51.0003 10.5922 52.8355 12.0648C54.6707 13.5373 56.1053 15.3855 57.024 17.4608C58.7419 15.0004 61.0291 12.9202 63.7225 11.3692C66.4159 9.81818 69.4489 8.83477 72.6038 8.48945C73.9076 8.32928 75.2221 8.25039 76.5378 8.25319C79.5635 8.19804 82.5728 8.67491 85.4044 9.65832C92.2981 12.1942 96.1938 18.1624 97.092 27.5629C97.1913 28.6183 97.2533 29.6764 97.2781 30.7355V70.5034H76.5378V31.9218C76.5412 31.1184 76.4972 30.3155 76.4052 29.5166C76.2077 27.865 75.7886 26.5412 75.1482 25.5451C75.0467 25.3873 74.9372 25.2343 74.8193 25.0867C74.2523 24.3973 73.4878 23.8669 72.6122 23.555C71.5307 23.1451 70.1806 22.9402 68.5603 22.9402C67.1216 22.9208 65.6937 23.1662 64.3594 23.6621C62.3098 24.4508 60.6624 25.8859 59.4172 27.9676L59.4787 28.7584V70.5034H38.738V32.0349C38.7411 31.2458 38.7021 30.457 38.6211 29.6714C38.4498 28.0772 38.0905 26.7846 37.5429 25.7935C37.4081 25.5478 37.2538 25.3116 37.0814 25.0867C36.5542 24.4237 35.8367 23.9091 35.0096 23.6006C33.9017 23.1604 32.4854 22.9402 30.7609 22.9402C29.151 22.9156 27.5577 23.2424 26.1116 23.894C24.7231 24.5377 23.5176 25.5072 22.495 26.8028C22.2005 27.1773 21.9281 27.566 21.6792 27.9676V70.5034H1V9.38301Z" fill="#EEE3C1" stroke="#EEE3C1" stroke-width="0.0628354" stroke-linecap="round"/>
<path fill-rule="evenodd" clip-rule="evenodd" d="M119.495 9.22131L129.988 43.6791L141.033 9.22131H163.186L136.124 80.5658L134.959 83.1642C131.113 91.0725 124.322 95.0269 114.586 95.0269C112.832 95.0212 111.082 94.8737 109.356 94.5855C108.245 94.4026 107.145 94.1726 106.057 93.8973V80.2833H108.757C111.661 80.2833 113.881 79.8974 115.415 79.1256C116.304 78.6686 117.062 78.023 117.624 77.2419C118.01 76.7226 118.346 76.1263 118.631 75.4522C118.698 75.2938 118.761 75.1343 118.82 74.9733L120.477 70.9062L97.4048 9.22131H119.495Z" fill="#EEE3C1" stroke="#EEE3C1" stroke-width="0.0628354" stroke-linecap="round"/>
<path fill-rule="evenodd" clip-rule="evenodd" d="M216.079 94.173H195.4C194.735 93.0507 194.136 91.4516 193.605 89.3762C193.547 89.1493 193.49 88.9218 193.436 88.6938C191.848 90.5526 189.858 92.0883 187.593 93.2034C185.328 94.3185 182.836 94.9884 180.274 95.1723C179.347 95.2606 178.415 95.3042 177.482 95.3026C174.572 95.3286 171.678 94.9007 168.924 94.037C166.208 93.1618 163.698 91.8183 161.528 90.0779C159.411 88.4382 157.713 86.3904 156.552 84.0793C155.473 81.833 154.93 79.3998 154.962 76.9443C154.962 70.3162 157.621 65.308 162.939 61.9186C165.194 60.5164 167.668 59.4387 170.276 58.7225C172.608 58.0536 175.193 57.5628 178.031 57.2491C180.72 56.9629 183.426 56.8242 186.134 56.8346H192.516V53.6146C192.529 52.5469 192.411 51.4814 192.164 50.4382C191.285 46.9446 188.764 45.1978 184.6 45.1978C180.724 45.1978 178.379 46.5825 177.563 49.3519C177.334 50.1722 177.225 51.0167 177.237 51.8635H156.557C156.508 49.4344 157.033 47.0245 158.096 44.8011C159.16 42.5778 160.737 40.5942 162.718 38.9884C163.365 38.4455 164.043 37.935 164.749 37.459C168.12 35.2179 171.959 33.6468 176.024 32.8456C178.795 32.2691 181.787 31.9629 184.998 31.9268C185.213 31.9244 185.428 31.9231 185.643 31.9231C192.288 31.9231 197.837 33.0941 202.29 35.4361C203.499 36.0704 204.643 36.8043 205.709 37.6286C209.835 40.8107 212.458 45.3441 213.024 50.2723C213.162 51.2687 213.24 52.2715 213.256 53.2759V80.3336C213.336 85.7781 214.224 89.9818 215.921 92.9442C215.973 93.0341 216.025 93.1239 216.079 93.2127V94.173ZM192.516 76.775V67.0027H186.502C179.302 67.0027 175.702 69.9776 175.702 75.9274C175.695 76.6062 175.807 77.2813 176.035 77.9269C176.344 78.775 176.884 79.5359 177.605 80.1357C178.617 80.9875 179.894 81.5256 181.256 81.6741C181.652 81.7229 182.052 81.7468 182.452 81.7458C183.398 81.751 184.342 81.6731 185.271 81.5131C186.409 81.3105 187.433 80.9766 188.343 80.5102C188.52 80.4193 188.694 80.3227 188.865 80.2204C190.563 79.204 191.78 78.0552 192.516 76.775Z" fill="#EEE3C1" stroke="#EEE3C1" stroke-width="0.0628354" stroke-linecap="round"/>
<path fill-rule="evenodd" clip-rule="evenodd" d="M245.946 33.0168V94.0998H224.582V33.0168H245.946Z" fill="#EEE3C1" stroke="#EEE3C1" stroke-width="0.0628354" stroke-linecap="round"/>
<path d="M234.636 28.6797C240.188 28.6797 244.689 24.5361 244.689 19.4247C244.689 14.3133 240.188 10.1697 234.636 10.1697C229.083 10.1697 224.582 14.3133 224.582 19.4247C224.582 24.5361 229.083 28.6797 234.636 28.6797Z" fill="#D0021B"/>
<path fill-rule="evenodd" clip-rule="evenodd" d="M216.317 28.7645L211.826 20.3878L209.21 22.5454L208.058 28.7645H203.43L208.624 0.914551H213.252L210.284 16.7253L211.905 15.1659L218.621 9.14626H224.538L215.165 17.523L221.335 28.7645H216.317ZM201.673 15.0571L197.085 15.0389C197.086 14.9991 197.086 14.9592 197.086 14.9193C197.086 14.0697 196.819 13.3994 196.284 12.9085C195.914 12.5734 195.454 12.3366 194.952 12.2226C194.634 12.148 194.308 12.1075 193.98 12.1017C193.528 12.0987 193.078 12.15 192.641 12.2545C192.174 12.3673 191.732 12.5549 191.334 12.8088C191.036 12.996 190.773 13.2286 190.557 13.4968C190.289 13.8391 190.116 14.2383 190.055 14.6582C190.04 14.747 190.032 14.8367 190.031 14.9265C190.02 15.8505 190.804 16.5118 192.383 16.9103C192.44 16.9247 192.497 16.9385 192.555 16.9519C194.403 17.381 195.77 17.7769 196.655 18.1395C199.144 19.1552 200.389 20.7235 200.389 22.8443C200.389 22.92 200.388 22.9956 200.384 23.0713C200.342 24.261 199.879 25.4047 199.066 26.3258C198.462 27.0052 197.721 27.568 196.884 27.9825C196.532 28.1592 196.169 28.3144 195.796 28.4472C194.507 28.9058 193.138 29.1376 191.758 29.1309C191.653 29.1309 191.547 29.1297 191.442 29.1271C190.527 29.1244 189.617 29.0067 188.736 28.7771C187.62 28.4833 186.587 27.9652 185.711 27.2596C185.049 26.7461 184.51 26.1103 184.127 25.3927C183.744 24.675 183.527 23.8912 183.488 23.0912C183.477 22.9184 183.473 22.7425 183.475 22.5636L187.947 22.5817C187.967 23.407 188.18 24.076 188.585 24.5886C188.696 24.7291 188.822 24.8586 188.962 24.9751C189.569 25.4828 190.387 25.7588 191.414 25.8032C191.488 25.8063 191.563 25.8083 191.637 25.8091C192.652 25.8091 193.516 25.636 194.229 25.2899C194.32 25.2455 194.41 25.198 194.497 25.1473C194.801 24.9758 195.07 24.7569 195.293 24.5001C195.581 24.1593 195.768 23.7541 195.835 23.3251C195.853 23.2268 195.865 23.1275 195.868 23.0279C195.906 21.99 195.059 21.2582 193.327 20.8323C193.327 20.8322 193.326 20.8321 193.326 20.832C191.497 20.3827 190.23 20.0208 189.524 19.7462C189.499 19.7366 189.475 19.7268 189.45 19.7169C186.857 18.6881 185.56 17.1393 185.56 15.0704C185.56 14.9995 185.562 14.9285 185.565 14.8576C185.586 14.0945 185.782 13.3443 186.139 12.6566C186.496 11.9689 187.006 11.3595 187.636 10.8687C187.802 10.7323 187.974 10.6022 188.152 10.4789C189.518 9.53522 191.142 8.96512 192.839 8.83295C193.253 8.79551 193.679 8.77908 194.117 8.78366C194.938 8.7867 195.755 8.8826 196.551 9.06921C197.676 9.33083 198.719 9.8356 199.594 10.5424C200.223 11.044 200.732 11.6621 201.088 12.3572C201.445 13.0523 201.641 13.809 201.664 14.5786C201.672 14.7354 201.675 14.8949 201.673 15.0571ZM179.16 28.7645H174.572C174.417 28.2853 174.351 27.6815 174.376 26.953C174.376 26.9464 174.376 26.9398 174.376 26.9332C173.769 27.468 173.091 27.9285 172.358 28.3034C171.203 28.8828 169.995 29.1574 168.733 29.1271C167.957 29.1238 167.187 29.006 166.451 28.7781C165.599 28.5077 164.822 28.0667 164.174 27.4862C162.97 26.4165 162.407 25.0597 162.485 23.4158C162.587 21.3874 163.517 19.7838 165.274 18.6052C165.307 18.5827 165.341 18.5604 165.375 18.5384C167.197 17.3538 169.645 16.7615 172.717 16.7615L175.724 16.7978L175.997 15.456C176.027 15.2742 176.046 15.0909 176.053 14.9069C176.063 14.6413 176.044 14.3864 175.999 14.1421C175.998 14.1389 175.998 14.1356 175.997 14.1324C175.934 13.783 175.798 13.4486 175.595 13.1484C175.134 12.4883 174.337 12.1454 173.205 12.1198C172.591 12.1048 172.024 12.1887 171.503 12.3714C171.182 12.4841 170.878 12.6341 170.598 12.8179C169.85 13.3075 169.391 13.9632 169.222 14.7851L164.594 14.8214C164.669 13.6486 165.156 12.531 165.98 11.6393C166.574 10.9955 167.288 10.4554 168.086 10.0441C168.477 9.84019 168.882 9.66134 169.3 9.50887C170.625 9.02273 172.039 8.77602 173.464 8.78199C173.534 8.78199 173.604 8.78255 173.673 8.78366C174.429 8.79401 175.182 8.88518 175.915 9.05538C177.111 9.32294 178.202 9.89797 179.062 10.7146C180.328 11.9309 180.865 13.4996 180.675 15.4206C180.671 15.4566 180.668 15.4926 180.664 15.5286L179.043 24.7212L178.887 26.353C178.881 26.4545 178.878 26.556 178.878 26.6576C178.878 27.2621 178.98 27.8629 179.18 28.4381L179.16 28.7645ZM174.65 23.2707L175.372 19.5537L173.166 19.5356C172.606 19.533 172.047 19.5691 171.494 19.6435C170.915 19.7241 170.389 19.8499 169.915 20.0209C169.591 20.1363 169.281 20.2804 168.987 20.4512C167.946 21.0617 167.354 21.8988 167.21 22.9625C167.197 23.0617 167.189 23.1614 167.185 23.2613C167.174 23.5558 167.206 23.8248 167.283 24.0684C167.376 24.3721 167.549 24.6495 167.786 24.8753C168.116 25.1854 168.531 25.404 168.987 25.5066C169.256 25.5692 169.531 25.6038 169.807 25.6097C169.858 25.6109 169.908 25.6116 169.959 25.6115C170.858 25.6163 171.742 25.3998 172.521 24.9841C173.346 24.5496 174.07 23.9672 174.65 23.2707Z" fill="#A6A7A8" fill-opacity="0.3"/>
<g clip-path="url(#clip0_405_33)">
<path fill-rule="evenodd" clip-rule="evenodd" d="M86.5427 74.5369L89.9251 84.4244L93.1744 74.5369H97L90.6487 91.3217C90.4252 91.9026 90.1267 92.4571 89.7594 92.9737C89.2599 93.6595 88.664 94.1712 87.9717 94.5087C87.2665 94.8434 86.4809 95.0121 85.6861 94.9995C85.4103 94.9984 85.1351 94.9781 84.8627 94.9388C84.6106 94.9035 84.3483 94.8527 84.0756 94.7863C84.0363 94.7768 83.9971 94.767 83.958 94.757V92.2244L84.6374 92.2646C84.8873 92.2657 85.137 92.2524 85.3851 92.2249C85.9286 92.1622 86.3612 92.0251 86.6831 91.8136C87.141 91.5127 87.5029 91.0075 87.7687 90.2981L88.2857 89.0453L82.673 74.5369H86.5427ZM78.2422 84.2898H81.6243C81.585 85.1969 81.2748 86.0434 80.6938 86.8291C80.1577 87.5493 79.4417 88.1431 78.6049 88.5617C78.5146 88.6079 78.4232 88.6523 78.3308 88.6949C77.3362 89.1529 76.2629 89.3819 75.1108 89.3819C74.3273 89.3886 73.5466 89.2949 72.7917 89.1035C71.6353 88.8076 70.5954 88.2172 69.7937 87.4016C69.0379 86.6266 68.4937 85.6997 68.2054 84.6965C68.0017 84.0261 67.8808 83.2921 67.8427 82.4946C67.8338 82.3073 67.8293 82.1198 67.8294 81.9323V81.5958C67.8231 80.8342 67.9113 80.0745 68.0922 79.331C68.3848 78.1702 68.9216 77.1758 69.7027 76.3475C69.7278 76.3208 69.7532 76.2942 69.7789 76.2678C70.8144 75.205 72.2393 74.5231 73.7865 74.3498C74.2203 74.2938 74.6579 74.2662 75.096 74.2673C75.806 74.2618 76.5136 74.3427 77.2001 74.5079C78.1487 74.7371 79.0212 75.1748 79.7413 75.7828C80.7775 76.6564 81.428 77.8451 81.5707 79.1255C81.599 79.3373 81.6169 79.5503 81.6243 79.7636H78.2422C78.229 79.407 78.1541 79.0546 78.0202 78.7193C77.8642 78.3375 77.62 77.9907 77.3042 77.7024C76.7776 77.2162 76.0685 76.93 75.3198 76.9015C75.2356 76.8967 75.1511 76.8943 75.0667 76.8943C74.6694 76.8903 74.2739 76.9426 73.8942 77.0494C73.2855 77.2258 72.7544 77.575 72.3785 78.0459C72.1275 78.3599 71.9324 78.708 71.8004 79.0774C71.552 79.7436 71.4246 80.565 71.4184 81.5417V82.0673C71.4165 82.4809 71.4412 82.8944 71.4925 83.3054C71.6189 84.279 71.9069 85.0449 72.3564 85.6033C72.9815 86.3802 73.8849 86.7687 75.0667 86.7687C75.4286 86.7715 75.7891 86.7271 76.1372 86.6368C76.5663 86.5237 76.9625 86.3248 77.2969 86.0547C77.6009 85.8157 77.8448 85.5198 78.012 85.187C78.1494 84.9037 78.2275 84.5994 78.2422 84.2898V84.2898ZM65.3481 89.1126H61.6849C61.5551 88.8831 61.4386 88.5344 61.3356 88.0667C61.3125 87.9621 61.2912 87.8571 61.2714 87.7519C60.7552 88.2602 60.1305 88.6668 59.4357 88.9468C58.7409 89.2268 57.9907 89.3743 57.2311 89.3802C57.1797 89.3813 57.1283 89.3819 57.0769 89.3819C56.4773 89.3864 55.8797 89.3195 55.2991 89.183C54.4996 88.9947 53.7617 88.6332 53.1481 88.1291C52.6362 87.7185 52.2316 87.2086 51.9639 86.6368C51.7354 86.1273 51.6209 85.5813 51.6269 85.0308C51.6202 84.5 51.7065 83.9715 51.8825 83.4655C52.1764 82.6504 52.7528 81.9446 53.5247 81.4542C54.79 80.6234 56.5992 80.208 58.9526 80.208H61.1535V79.2515C61.1535 78.4973 60.9221 77.8933 60.4593 77.4398C60.2051 77.1955 59.8867 77.0145 59.5343 76.9139C59.2997 76.8431 59.0394 76.7967 58.7532 76.7746C58.6181 76.7643 58.4826 76.7593 58.347 76.7594C58.0491 76.7575 57.752 76.7858 57.461 76.8439C57.0526 76.9236 56.669 77.0858 56.3385 77.3187C56.1345 77.4607 55.9603 77.6351 55.8243 77.8335C55.6434 78.1066 55.5503 78.4207 55.5556 78.7398H51.9666C51.9686 78.0375 52.1987 77.3516 52.6279 76.7685C52.6942 76.6756 52.7642 76.585 52.8378 76.4968C53.2791 75.9739 53.8291 75.5355 54.4564 75.2067C54.6992 75.0775 54.9503 74.9617 55.2084 74.8602C55.9513 74.5704 56.7385 74.3862 57.5427 74.3142C57.8786 74.2826 58.2162 74.2669 58.5539 74.2673C59.1787 74.2634 59.8022 74.3185 60.4145 74.4318C61.1856 74.5795 61.8687 74.8267 62.4635 75.1736C62.6611 75.2888 62.8501 75.4158 63.0292 75.5538C63.883 76.2134 64.4514 77.1288 64.6324 78.1358C64.7005 78.4775 64.7373 78.8237 64.7425 79.171V85.7448C64.7409 86.1473 64.7626 86.5496 64.8075 86.9499C64.8541 87.3498 64.9257 87.717 65.0223 88.0515C65.1028 88.3374 65.2119 88.6159 65.3481 88.8836V89.1126ZM16.0018 81.7707V81.9729C16.0018 83.7246 15.6629 85.2011 14.9852 86.4023C14.7944 86.7414 14.5712 87.0646 14.3182 87.3679C13.1956 88.7106 11.689 89.3819 9.79842 89.3819C9.15758 89.3876 8.51935 89.3066 7.90455 89.1416C7.01344 88.8975 6.21263 88.4355 5.58901 87.8057V94.7165H2V74.5369H5.3086L5.45622 76.0187C6.50968 74.8511 7.94236 74.2673 9.75426 74.2673C10.4654 74.2599 11.1727 74.3624 11.8463 74.5705C12.8433 74.8921 13.7119 75.4785 14.3403 76.2543C14.8792 76.9127 15.2822 77.6552 15.5293 78.4454C15.736 79.077 15.875 79.7715 15.9462 80.5289C15.9841 80.9419 16.0026 81.3562 16.0018 81.7707V81.7707ZM39.604 74.5369L43.0309 84.9635L46.413 74.5369H50.1203L44.5814 89.1126H41.4652L35.8822 74.5369H39.604ZM27.4189 74.456L27.4041 77.5272C26.9316 77.4555 26.4442 77.4196 25.9419 77.4196C25.5178 77.4155 25.095 77.4612 24.6838 77.5556C24.2274 77.6547 23.8029 77.8501 23.4443 78.1259C23.0856 78.4017 22.8029 78.7504 22.6187 79.1439V89.1126H19.0297V74.5369H22.4563L22.5449 76.1668C23.4102 74.9022 24.6096 74.269 26.143 74.2673C26.1449 74.2673 26.1468 74.2673 26.1488 74.2673C26.538 74.2673 26.876 74.3037 27.163 74.3763C27.25 74.3982 27.3354 74.4248 27.4189 74.456V74.456ZM33.4895 74.5369V89.1126H29.9002V74.5369H33.4895ZM5.58901 78.6051V85.0711C5.82196 85.4933 6.15448 85.8632 6.56272 86.1543C7.01846 86.471 7.56375 86.6652 8.19857 86.7369C8.39126 86.7584 8.58522 86.769 8.77934 86.7687C9.22099 86.774 9.65953 86.7006 10.0704 86.5526C10.5846 86.3615 11.0239 86.0438 11.3883 85.5995C11.4127 85.5696 11.4366 85.5395 11.46 85.509C11.707 85.1788 11.8993 84.8171 12.0305 84.4358C12.2781 83.7458 12.4099 82.9003 12.4258 81.899C12.427 81.8293 12.4276 81.7595 12.4276 81.6898C12.4276 80.6426 12.2631 79.7512 11.934 79.0157C11.8115 78.7392 11.6576 78.4752 11.4748 78.228C11.233 77.8854 10.9112 77.5959 10.5324 77.38C10.1536 77.1641 9.72715 77.0273 9.28359 76.9793C9.10658 76.9582 8.92822 76.9478 8.7497 76.9481C8.30641 76.9431 7.86512 77.003 7.44265 77.1255C6.66284 77.361 6.05867 77.8312 5.63015 78.5362C5.61618 78.559 5.60247 78.582 5.58901 78.6051V78.6051ZM61.1535 85.0173V82.2692H59.2185C58.8699 82.268 58.5216 82.2848 58.1752 82.3194C57.3982 82.4 56.7735 82.5779 56.301 82.8533C56.2737 82.8692 56.2468 82.8856 56.2202 82.9024C55.9515 83.0631 55.7245 83.2755 55.5553 83.5246C55.386 83.7738 55.2786 84.0537 55.2405 84.3447C55.2239 84.4605 55.2157 84.5772 55.2159 84.694C55.2134 84.9235 55.2487 85.1521 55.3206 85.3721C55.4271 85.6906 55.6286 85.9759 55.9026 86.1959C56.1972 86.4323 56.5524 86.597 56.9353 86.6749C57.1664 86.7251 57.4171 86.7517 57.6873 86.7549C57.7053 86.7551 57.7234 86.7552 57.7414 86.7551C58.4419 86.7572 59.1312 86.5948 59.743 86.2837C60.3681 85.9693 60.8383 85.5472 61.1535 85.0173ZM29.7856 70.1227C29.7125 70.3255 29.6765 70.5379 29.6788 70.7514C29.6787 70.7895 29.6797 70.8276 29.6818 70.8656C29.6956 71.2849 29.8817 71.684 30.203 71.9841C30.2799 72.0562 30.3647 72.1208 30.4562 72.1769C30.6439 72.2923 30.8622 72.3742 31.1111 72.4227C31.3055 72.4593 31.5036 72.477 31.7021 72.4757C31.7361 72.4757 31.7701 72.4753 31.8041 72.4743C32.4048 72.458 32.873 72.2945 33.2088 71.9841C33.3941 71.815 33.5364 71.6109 33.6256 71.3862C33.7041 71.1823 33.743 70.9675 33.7406 70.7514C33.7405 70.7049 33.7389 70.6585 33.7357 70.6121C33.7168 70.1943 33.5291 69.7977 33.2088 69.4986C33.1466 69.4403 33.0792 69.3866 33.0073 69.3383C32.8091 69.2048 32.5757 69.1108 32.3071 69.0564C32.1083 69.0175 31.9054 68.9987 31.7021 69.0001C31.6707 69.0001 31.6392 69.0006 31.6077 69.0015C31.3902 69.007 31.1902 69.032 31.0079 69.0765C30.7018 69.1463 30.4231 69.2924 30.203 69.4986C30.0147 69.6757 29.8721 69.8889 29.7856 70.1227V70.1227Z" fill="#DD8F63" stroke="#DD8F63" stroke-width="0.261746" stroke-linecap="round"/>
</g>
<defs>
<clipPath id="clip0_405_33">
<rect width="95" height="26" fill="white" transform="translate(2 69)"/>
</clipPath>
</defs>
</svg>
