<svg width="436" height="168" viewBox="0 0 436 168" fill="none" xmlns="http://www.w3.org/2000/svg">
<path fill-rule="evenodd" clip-rule="evenodd" d="M0.782227 15.0102H35.1517L36.3483 27.7261C39.779 23.5295 44.1484 20.0599 49.1611 17.5517C54.1738 15.0433 59.7129 13.5549 65.4043 13.1868C66.9181 13.0662 68.4369 13.0063 69.9564 13.0076C73.8011 12.9688 77.6343 13.403 81.3541 14.2986C85.5349 15.2818 89.4072 17.1534 92.66 19.7636C95.9128 22.3737 98.4556 25.6495 100.084 29.328C103.129 24.967 107.183 21.2799 111.957 18.5307C116.731 15.7815 122.107 14.0385 127.699 13.4264C130.01 13.1425 132.34 13.0026 134.672 13.0076C140.035 12.9098 145.369 13.7551 150.388 15.4982C162.607 19.993 169.512 30.5715 171.104 47.2338C171.28 49.1045 171.39 50.9799 171.434 52.8572V123.345H134.672V54.9599C134.678 53.5359 134.6 52.1128 134.437 50.6967C134.087 47.7694 133.344 45.4229 132.209 43.6572C132.029 43.3776 131.835 43.1064 131.626 42.8447C130.621 41.6228 129.266 40.6827 127.714 40.1298C125.797 39.4034 123.404 39.0401 120.532 39.0401C117.982 39.0057 115.451 39.4407 113.086 40.3197C109.453 41.7177 106.533 44.2614 104.326 47.9511L104.435 49.3528V123.345H67.6723V55.1604C67.6778 53.7617 67.6087 52.3635 67.4652 50.9711C67.1616 48.1454 66.5246 45.8543 65.554 44.0976C65.3151 43.6621 65.0417 43.2433 64.736 42.8447C63.8016 41.6696 62.5299 40.7575 61.0638 40.2106C59.1 39.4304 56.5897 39.0401 53.533 39.0401C50.6796 38.9965 47.8555 39.5758 45.2922 40.7307C42.8312 41.8716 40.6944 43.5902 38.8819 45.8865C38.3598 46.5503 37.8771 47.2394 37.4358 47.9511V123.345H0.782227V15.0102Z" fill="#EEE3C1" stroke="#EEE3C1" stroke-width="0.111375" stroke-linecap="round"/>
<path fill-rule="evenodd" clip-rule="evenodd" d="M210.813 14.7236L229.412 75.7997L248.989 14.7236H288.254L240.288 141.181L238.222 145.786C231.406 159.804 219.369 166.813 202.112 166.813C199.003 166.803 195.9 166.541 192.841 166.03C190.873 165.706 188.922 165.299 186.994 164.811V140.68H191.779C196.927 140.68 200.861 139.996 203.58 138.628C205.156 137.818 206.5 136.674 207.497 135.289C208.181 134.369 208.776 133.312 209.281 132.117C209.4 131.836 209.511 131.554 209.617 131.268L212.553 124.059L171.658 14.7236H210.813Z" fill="#EEE3C1" stroke="#EEE3C1" stroke-width="0.111375" stroke-linecap="round"/>
<path fill-rule="evenodd" clip-rule="evenodd" d="M382.007 165.3H345.353C344.174 163.31 343.113 160.476 342.171 156.797C342.068 156.395 341.968 155.992 341.872 155.588C339.057 158.882 335.531 161.605 331.515 163.581C327.5 165.557 323.083 166.745 318.543 167.071C316.899 167.227 315.247 167.305 313.593 167.302C308.436 167.348 303.307 166.589 298.425 165.058C293.61 163.507 289.161 161.126 285.315 158.041C281.564 155.135 278.554 151.505 276.496 147.409C274.583 143.427 273.621 139.114 273.677 134.762C273.677 123.014 278.39 114.137 287.816 108.129C291.814 105.644 296.199 103.733 300.821 102.464C304.955 101.278 309.537 100.408 314.567 99.8524C319.334 99.3451 324.13 99.0993 328.929 99.1177H340.241V93.4103C340.265 91.5179 340.055 89.6293 339.617 87.7802C338.06 81.5879 333.591 78.4917 326.21 78.4917C319.341 78.4917 315.184 80.9461 313.737 85.8548C313.332 87.3087 313.138 88.8056 313.159 90.3065H276.505C276.417 86.001 277.348 81.7295 279.233 77.7885C281.119 73.8477 283.914 70.3319 287.424 67.4855C288.571 66.5233 289.773 65.6184 291.025 64.7748C296.999 60.8024 303.805 58.0177 311.01 56.5975C315.922 55.5758 321.224 55.0329 326.916 54.9689C327.297 54.9647 327.678 54.9625 328.059 54.9624C339.837 54.9624 349.672 57.038 357.566 61.1892C359.709 62.3134 361.737 63.6142 363.625 65.0753C370.94 70.7156 375.589 78.751 376.591 87.4862C376.836 89.2523 376.974 91.0296 377.003 92.8101V140.769C377.144 150.42 378.718 157.871 381.726 163.122C381.818 163.281 381.911 163.44 382.007 163.598V165.3ZM340.241 134.462V117.14H329.582C316.82 117.14 310.439 122.413 310.439 132.959C310.426 134.163 310.625 135.359 311.029 136.504C311.576 138.007 312.534 139.355 313.811 140.419C315.606 141.928 317.869 142.882 320.284 143.145C320.986 143.232 321.695 143.274 322.404 143.272C324.08 143.282 325.753 143.144 327.4 142.86C329.417 142.501 331.231 141.909 332.844 141.082C333.159 140.921 333.467 140.75 333.77 140.569C336.779 138.767 338.936 136.731 340.241 134.462Z" fill="#EEE3C1" stroke="#EEE3C1" stroke-width="0.111375" stroke-linecap="round"/>
<path fill-rule="evenodd" clip-rule="evenodd" d="M434.946 56.901V165.17H397.078V56.901H434.946Z" fill="#EEE3C1" stroke="#EEE3C1" stroke-width="0.111375" stroke-linecap="round"/>
<path d="M414.898 49.2133C424.74 49.2133 432.718 41.8688 432.718 32.8089C432.718 23.749 424.74 16.4045 414.898 16.4045C405.056 16.4045 397.078 23.749 397.078 32.8089C397.078 41.8688 405.056 49.2133 414.898 49.2133Z" fill="#D0021B"/>
<path fill-rule="evenodd" clip-rule="evenodd" d="M382.43 49.3637L374.469 34.5161L369.832 38.3405L367.79 49.3637H359.588L368.794 0H376.996L371.735 28.0243L374.608 25.2604L386.513 14.5906H397L380.388 29.4382L391.324 49.3637H382.43ZM356.473 25.0676L348.34 25.0353C348.342 24.9646 348.343 24.8939 348.343 24.8232C348.343 23.3173 347.869 22.1293 346.921 21.2592C346.265 20.6652 345.449 20.2454 344.56 20.0433C343.996 19.9112 343.418 19.8393 342.837 19.8291C342.036 19.8237 341.239 19.9147 340.463 20.0999C339.636 20.2999 338.852 20.6323 338.147 21.0824C337.618 21.4142 337.152 21.8264 336.77 22.3019C336.294 22.9085 335.988 23.6162 335.881 24.3605C335.854 24.5179 335.84 24.6768 335.837 24.8361C335.817 26.4738 337.207 27.6459 340.006 28.3522C340.107 28.3778 340.209 28.4023 340.311 28.4259C343.587 29.1866 346.009 29.8883 347.578 30.531C351.991 32.3313 354.197 35.1111 354.197 38.8702C354.197 39.0043 354.194 39.1384 354.189 39.2725C354.113 41.3814 353.292 43.4085 351.852 45.0411C350.782 46.2453 349.467 47.2429 347.983 47.9776C347.361 48.2908 346.717 48.5659 346.056 48.8013C343.772 49.6141 341.345 50.025 338.899 50.0132C338.712 50.0132 338.525 50.0109 338.338 50.0065C336.716 50.0017 335.103 49.793 333.542 49.386C331.564 48.8652 329.733 47.947 328.18 46.6963C327.007 45.7862 326.051 44.6592 325.373 43.3872C324.694 42.1151 324.309 40.7259 324.24 39.3079C324.221 39.0015 324.213 38.6897 324.217 38.3726L332.143 38.4047C332.179 39.8676 332.556 41.0534 333.275 41.962C333.471 42.2109 333.695 42.4405 333.942 42.647C335.019 43.5469 336.468 44.0362 338.289 44.1147C338.42 44.1204 338.552 44.1239 338.684 44.1253C340.482 44.1253 342.014 43.8185 343.278 43.205C343.44 43.1264 343.599 43.0421 343.754 42.9522C344.292 42.6483 344.769 42.2602 345.164 41.8052C345.675 41.201 346.006 40.4828 346.125 39.7223C346.157 39.5482 346.177 39.3723 346.184 39.1956C346.251 37.356 344.75 36.0588 341.679 35.304C341.679 35.3038 341.678 35.3036 341.677 35.3035C338.437 34.5071 336.19 33.8655 334.938 33.3788C334.895 33.3618 334.851 33.3445 334.808 33.3269C330.211 31.5034 327.913 28.7582 327.913 25.0911C327.913 24.9653 327.915 24.8396 327.921 24.714C327.958 23.3613 328.305 22.0315 328.938 20.8126C329.571 19.5938 330.475 18.5136 331.592 17.6436C331.886 17.4018 332.191 17.1713 332.506 16.9527C334.929 15.28 337.806 14.2695 340.815 14.0353C341.549 13.9689 342.304 13.9398 343.079 13.9479C344.534 13.9533 345.983 14.1233 347.394 14.454C349.388 14.9178 351.236 15.8125 352.787 17.0652C353.902 17.9542 354.804 19.05 355.436 20.282C356.068 21.5141 356.415 22.8552 356.456 24.2193C356.471 24.4973 356.477 24.7801 356.473 25.0676ZM316.569 49.3637H308.436C308.161 48.5144 308.045 47.444 308.088 46.1528C308.089 46.1411 308.089 46.1294 308.09 46.1178C307.013 47.0657 305.811 47.8819 304.512 48.5464C302.465 49.5734 300.324 50.0601 298.087 50.0065C296.712 50.0006 295.347 49.7917 294.042 49.3878C292.532 48.9086 291.155 48.1268 290.006 47.098C287.872 45.2018 286.874 42.7969 287.013 39.8831C287.194 36.2878 288.841 33.4456 291.955 31.3565C292.015 31.3166 292.075 31.2771 292.135 31.238C295.365 29.1383 299.703 28.0885 305.148 28.0885L310.478 28.1528L310.962 25.7746C311.016 25.4523 311.049 25.1273 311.062 24.8013C311.078 24.3305 311.046 23.8786 310.965 23.4456C310.964 23.4399 310.963 23.4342 310.962 23.4285C310.851 22.8092 310.609 22.2165 310.251 21.6843C309.432 20.5143 308.019 19.9066 306.013 19.8612C304.925 19.8346 303.92 19.9833 302.996 20.3071C302.428 20.5068 301.889 20.7728 301.393 21.0986C300.066 21.9663 299.253 23.1286 298.953 24.5854L290.75 24.6498C290.884 22.5709 291.747 20.5899 293.208 19.0095C294.261 17.8684 295.525 16.911 296.94 16.1821C297.633 15.8206 298.352 15.5036 299.091 15.2333C301.441 14.3716 303.947 13.9344 306.473 13.9449C306.597 13.9449 306.72 13.9459 306.844 13.9479C308.184 13.9662 309.517 14.1278 310.817 14.4295C312.937 14.9038 314.871 15.923 316.396 17.3704C318.638 19.5263 319.591 22.3068 319.254 25.7118C319.247 25.7756 319.241 25.8394 319.234 25.9031L316.361 42.197L316.084 45.0893C316.074 45.2692 316.069 45.4492 316.069 45.6292C316.069 46.7007 316.249 47.7656 316.603 48.7852L316.569 49.3637ZM308.574 39.6259L309.855 33.0377L305.944 33.0056C304.952 33.001 303.962 33.0649 302.98 33.1968C301.955 33.3397 301.022 33.5627 300.181 33.8658C299.608 34.0703 299.058 34.3257 298.537 34.6285C296.692 35.7106 295.642 37.1943 295.388 39.0796C295.365 39.2555 295.35 39.4322 295.343 39.6093C295.323 40.1312 295.381 40.6081 295.516 41.0399C295.681 41.5782 295.988 42.0698 296.409 42.4701C296.992 43.0198 297.729 43.4073 298.537 43.589C299.013 43.7 299.501 43.7613 299.991 43.7718C300.081 43.774 300.17 43.7751 300.26 43.7751C301.853 43.7836 303.42 43.3999 304.802 42.6629C306.264 41.8928 307.546 40.8605 308.574 39.6259Z" fill="#A6A7A8" fill-opacity="0.3"/>
</svg>
